<?xml version="1.0" encoding="UTF-8"?>
<svg id="Layer_2" data-name="Layer 2" xmlns="http://www.w3.org/2000/svg" viewBox="0 0 256.69 44.75">
  <defs>
    <style>
      .cls-1 {
        fill: #fff;
      }
    </style>
  </defs>
  <g id="Layer_1-2" data-name="Layer 1">
    <g>
      <path class="cls-1" d="M69.87.19l11.73,39.62c.35,1.19.66,3.37.17,4.35,0,0-.86,1.32-4.98,0-3.72-1.19-5.28-4.83-5.78-9.99h-12.66c-.83,4.93-1.91,7.65-6.56,9.99-1.12.56-5.18.58-5.18.58L57.71,7.74c.99-3.3,2.56-6.61,5.85-7.55,1.52-.43,6.31,0,6.31,0ZM69.07,26.83l-4.22-17.21-4.71,17.22h8.93Z"/>
      <path class="cls-1" d="M152.77,44.17h-6.99l-3.6-2.13c-6.05-3.08-7.09-10.99-6.55-17.2.57-6.47,4.12-11.78,9.63-13.19s12.02-.03,15.11,5.37c4.22,7.35,3.71,17.04-1.66,23.63l-5.95,3.53h.01ZM148.79,17.82c-6.09,1.45-5.17,20.42.8,19.71s5.53-21.21-.8-19.71Z"/>
      <path class="cls-1" d="M216.76,44.51c-1.72.3-5.26.31-6.98,0-5.49-1-9.52-5.99-10.4-12.62-1.35-10.11,2.47-19.37,10.6-20.6,4.4-.67,9.31.42,11.8,4.28,2.69,4.17,3.05,9.29,3.07,14.63l-17.27.06c-.04,4.19,3.23,7.93,7.7,7.15,2.88-.5,5.87-1.5,8.77-2.44.13,4.89-2.86,8.75-7.29,9.53h0ZM216.7,24.69c.25-2.61-.92-6.63-3.61-7.49-1.62-.52-4.61,1.23-4.83,2.57l-.82,5.19,9.25-.26h.01Z"/>
      <path class="cls-1" d="M101.78,44.16s-4.12,1.25-7.99,0c-5.4-1.75-9.14-6.38-9.82-13.04-.53-5.15.08-10.67,3.15-15.04,4.38-6.22,14.2-7,18.96-.84,3.19,4.13,3.54,9.7,3.45,14.9l-17.31.17c.07,2.44,1.74,5.96,4.07,6.62,4.22,1.19,7.96-.18,12.22-2.2.71,5.12-2.74,7.64-6.74,9.41v.02ZM101.85,24.76l-2.09-6.59c-.37-1.18-4.39-1.32-5.25-.48-1.5,1.46-2.28,4.91-2.38,7.18,0,0,9.72-.11,9.72-.11Z"/>
      <path class="cls-1" d="M232.76,44.17c-1.22.24-4.97,0-4.97,0l2.24-5.08,6.59-12.64-8.13-14.67h9.75l4.28,9.09c1.71-3.86,2.83-6.76,4.73-8.24,2.13-1.67,5.71-1.59,8.28-.94l-8.16,14.82,9.32,17.58-9.83-.06-5.19-11.17c-2.07,5.55-3.79,10.31-8.92,11.3v.02Z"/>
      <path class="cls-1" d="M172.17,44.38c-1.17.41-5.35.36-5.35.36l.32-33.33c0-5.72,4.65-8.73,10.16-8.29,1.87.15,4.36.53,4.69,1.72.33,1.19.74,4.99-.47,5.21l-4.98.91-.52,10.26c2.56-.05,5.53.08,5.45,1.4l-.29,5.09c-.06,1.1-3.79.65-4.98.58,0,0-.08,11.54-.26,12.12-.65,2.18-2.26,3.43-3.77,3.97h0Z"/>
      <path class="cls-1" d="M190.77,44.37c-1.19.38-4.99.38-4.99.38l.46-37.48c.02-3.75,6.68-5.36,8.78-2.91,0,0,.21,30.95.07,36.14-.04,1.42-2.14,3.19-4.32,3.88h0Z"/>
      <path class="cls-1" d="M118.78,44.17c-1.14.5-4.98.58-4.98.58l-.11-32.82,7.39-.26,1.41,4.85c1.71-3.76,4.28-5.79,9.04-5.37l-.16,9.04c-15.22-2.4-3.4,19.93-12.59,23.98Z"/>
      <path class="cls-1" d="M.46,26.24c-.78-4.03-.41-6.37-.03-8.44C1.57,11.58,6.07,4.85,14.06,2.04l-5.81,36.66c-4.43-3.57-6.83-7.53-7.78-12.46h0Z"/>
      <path class="cls-1" d="M36.83,35.16c-4.88,7.23-14.52,9.83-22.94,6.67,2.27-1.82,5.42-4.91,5.82-7.66l2.11-14.47,12.85.03,2.16,15.42h0ZM31.63,26.24c0-1.86-1.51-3.38-3.38-3.38s-3.38,1.51-3.38,3.38,1.51,3.38,3.38,3.38,3.38-1.51,3.38-3.38Z"/>
      <path class="cls-1" d="M33.49,9.56l-10.46.08,1.36-8.81c5.63,1.98,9.51,2.55,9.1,8.74h0Z"/>
      <path class="cls-1" d="M158.71,15.21c5.37,6.58,5.87,16.28,1.66,23.63-3.1,5.4-9.42,6.83-15.11,5.37s-9.06-6.72-9.63-13.19c-.55-6.2.5-14.11,6.55-17.2l3.6-2.13h6.99l5.95,3.53h-.01ZM149.59,18.33c-5.96-.72-6.89,18.26-.8,19.71s7.01-18.96.8-19.71Z"/>
    </g>
  </g>
</svg>