<?xml version="1.0" encoding="UTF-8"?>
<svg id="Layer_2" data-name="Layer 2" xmlns="http://www.w3.org/2000/svg" viewBox="0 0 939.07 215.89">
  <defs>
    <style>
      .cls-1 {
        fill: #fff;
      }
    </style>
  </defs>
  <g id="Layer_1-2" data-name="Layer 1">
    <g>
      <path class="cls-1" d="M602.73,80.01c-37.91,15.02-76.93,20.91-117.38,20.55v-28.51c38.27.4,74.96-5.71,110.2-19.72l43.67-17.36c19.97-7.94,39.95-13.33,61.18-16.94l44.67-3.31v29.01c-31.67-.62-61.68,5.23-91.1,15.99l-51.23,20.3Z"/>
      <path class="cls-1" d="M610.03,134.35c-39.95,16.34-80.96,23.86-124.62,23.36l-.13-28.55c38.92.67,76.42-6.11,112.55-20.54l40.84-16.3c34.09-13.61,69.66-20.54,106.38-19.97v28.32c-32.11-.11-62.82,5.06-92.34,16.75l-42.69,16.91Z"/>
      <path class="cls-1" d="M608.7,192.05c-39.8,16.13-81.07,23.34-123.38,22.92v-28.46c40.18.52,78.94-7.11,116.23-22.11l32.97-13.25c35.2-14.55,72.12-22.21,110.54-21.69l.02,28.43c-33.64-.41-65.58,6.15-96.61,18.25l-39.77,15.91Z"/>
      <polygon class="cls-1" points="73.09 88.83 73.18 113.89 28.06 113.88 28.07 157.83 .01 157.8 0 35.45 82.78 35.42 82.84 60.82 28.06 60.88 28.06 88.85 73.09 88.83"/>
      <path class="cls-1" d="M353.22,157.93c-14.37,3.19-29.19,2.12-35.16-11.79-3.54,4.81-6.82,8.55-12.15,10.64-15.22,5.95-33.84,1.57-43.79-12.06-11.99-16.42-11.89-39.12-1.31-55.97,5.9-9.4,15.2-14.62,25.81-16.34,10.74-1.75,20.41,2.02,28.15,10.15l.5-8.81h26.61s.07,55.08.07,55.08c0,2.11,1.29,5.38,2.75,6.2,1.69.96,4.83.88,8.31.65l.24,22.26ZM316.35,115.27c-.27-10.91-7.07-19.46-16.87-20.52s-18.74,5.47-20.78,15.89c-.94,4.82-.52,10.37,1.43,15.05,3.85,9.25,13.54,13.17,22.74,10.46,8.68-2.56,13.73-10.79,13.48-20.88Z"/>
      <path class="cls-1" d="M420.61,110.57c-.11-5.67-2.4-11.73-6.93-14.31-5.49-3.14-13.16-2-17.34,2.87-3.18,3.72-5.11,9.54-5.13,14.66l-.16,44.04h-26.36s-.02-83.91-.02-83.91l26.25-.26.75,9.89c12.24-12.6,29.78-15.45,44.01-6.24,7.3,4.72,10.96,13.88,11.1,22.58l.49,29.76c.02,1.17.91,4.14,1.95,4.68,1.21.63,3.65.83,6.68,1.08l.15,22.63-13.12.83c-11.45.73-21.57-8.2-21.79-20.13l-.53-28.16Z"/>
      <path class="cls-1" d="M230.66,186.37c-7.98,7.62-22.7,7.91-34.46,6.51l-.04-23.07,7.93.03c5.05.02,8.8-4.01,8.8-9.19l.04-86.89h26.86s-.14,89.51-.14,89.51c-.01,8.67-2.9,17.31-8.98,23.1Z"/>
      <path class="cls-1" d="M168.61,157.79l-26.63.03v-84.07s26.44-.01,26.44-.01l.26,11.8c8.41-12.56,18.69-14.86,33.25-13.5l.11,24.88c-6.11-.45-11.71-.81-17.4.41-9.75,2.1-15.88,10.51-15.91,20.45l-.12,40.01Z"/>
      <path class="cls-1" d="M132.06,135.94v22.04c-8.3,2.23-17.05,2.6-25.04-1.32-6.69-3.28-10.53-10.87-10.54-18.52l-.11-64.42,26.55.03-.04,55.1c.16,1.93.89,4.79,2.01,5.7,1.19.97,3.92,1.22,7.17,1.37Z"/>
      <polygon class="cls-1" points="880.09 42.73 870.02 42.88 854.05 18.14 853.56 42.88 843.93 42.84 843.93 .71 853.73 .8 869.96 26.39 870.44 .55 880.07 .7 880.09 42.73"/>
      <path class="cls-1" d="M857.47,214.95l-7.81-12.38c-.46-.73-3.99-.97-4.19-.71l-.13,13.17-9.65-.14-.03-41.98,19.09.12c7.73.05,12.46,6.4,12.45,13.72,0,5.74-1.72,10.5-7.78,13.39l9.67,14.84-11.62-.04ZM854.66,191.74c1.43-.49,2.8-3.98,2.5-5.3s-2.03-4.14-3.42-4.26l-8.35-.73.06,11.18c2.88.22,5.98.21,9.2-.89Z"/>
      <polygon class="cls-1" points="832.97 83.63 818.78 83.79 818.82 91.72 838.02 91.71 837.71 100.44 809.01 100.28 809.01 58.06 836.58 58.11 836.62 66.73 818.83 66.88 818.69 75.07 832.8 75.16 832.97 83.63"/>
      <polygon class="cls-1" points="832.91 26.53 819.11 26.46 818.68 34.18 837.81 34.2 837.94 42.89 809.01 42.88 809 .63 836.57 .61 836.62 9.58 818.83 9.59 818.78 17.77 832.98 17.77 832.91 26.53"/>
      <path class="cls-1" d="M912.2,35.5l-15.23-.06-2.42,7.44-10.17-.15,15.21-41.86,9.67-.14,15.31,41.74-10.22.55-2.15-7.51ZM909.33,26.86l-4.94-13.82-4.71,13.85,9.64-.02Z"/>
      <polygon class="cls-1" points="817.13 140.93 802.99 140.89 803.05 148.86 822.12 148.85 822.29 157.58 793.33 157.64 793.32 115.65 820.91 115.63 820.95 124.19 803.23 124.27 802.94 132.66 817.07 132.63 817.13 140.93"/>
      <path class="cls-1" d="M784.1,192.96c-.44,5,2.34,10.41,6.31,12.03,5.19,2.12,10.26,1.45,14.54-3.32,2.48,1.6,5.04,3.66,7.46,6.17-8.88,10.06-24.25,10.75-33.32.79-8.39-9.22-6.99-25.14,3.26-32.41,9.35-6.63,22.12-4.7,30.04,3.64l-6.64,6.65c-4.38-3.82-8.46-5.81-13.73-4.37-4.39,1.2-7.44,5.37-7.92,10.83Z"/>
      <path class="cls-1" d="M799.03,97.33c-8.42,6.17-19.61,4.01-26.35-3.3l6.17-7.12c3.01,5.07,9.96,5.72,13.13,4.3.87-.39,1.71-3.1,1.23-3.75-.6-.81-2.1-2.12-3.07-2.59l-11.77-5.57c-3.71-1.75-4.79-7.68-4.02-11.61.67-3.45,3.66-7.53,7.57-8.93,7.26-2.59,14.5-1.02,20.51,4.04l-5.16,7.1-8.32-3.76c-.87-.39-3.18.64-3.89,1.19s-1.02,3.45-.3,3.93c7.62,5.07,17.44,5.48,18.69,13.72.63,4.15-.39,9.39-4.42,12.34Z"/>
      <path class="cls-1" d="M792.63,43.02c-7.56,1.75-14.51-1.2-19.96-6.04l5.91-7.38c2.57,4.18,9.57,5.96,13.24,4.37,1.09-.47,1.93-3.64,1.28-4.42s-2.19-1.9-3.26-2.36l-9.99-4.25c-3.61-1.54-5.68-6.33-5.82-9.67-.18-4.12,2.04-8.29,5.88-10.74,7.13-4.56,16.15-2.59,22.54,3.06l-5.44,7.05c-2.87-1.79-6.09-3.43-8.8-3.97-1.22-.25-3.89,1.73-3.96,2.83-.49,7.28,23.83,4.9,18.8,22.59-1.25,4.41-4.93,7.67-10.42,8.94Z"/>
      <path class="cls-1" d="M862.6,99.92c-8.2,2.5-15.82-.31-21.51-5.61l5.67-6.96c3.7,3.01,7.13,4.78,11.23,4.74,1.27-.01,3.64-1.92,3.87-3.01.28-1.27-1.41-3.64-2.64-4.15l-10.81-4.52c-3.81-1.6-5.8-6.51-5.91-10.07-.12-4.13,2.28-8.58,6.36-10.77,7.21-3.85,15.99-1.97,22.12,3.45l-5.25,6.79-8.73-3.74c-1.16-.5-3.83,1.42-4.08,2.55-1.72,7.96,23.22,4.32,18.55,23-.88,3.5-4.14,6.87-8.88,8.32Z"/>
      <path class="cls-1" d="M236.92,58.01c-7.74,6.14-18.81,4.75-24.11-2.77-3.32-4.71-3.39-10.18-.95-15.01,2.11-4.19,6.74-6.97,12.12-7.74,6.5-.93,12.96,2.04,15.95,7.14,3.41,5.82,2.68,13.86-3.01,18.38Z"/>
      <path class="cls-1" d="M125.42,48.33c-.42,10.78-11.22,16.22-20.42,13.6-7.41-2.11-11.66-8.31-11.1-15.64.52-6.88,6.02-12.3,13.54-13.15,9.1-1.03,18.39,4.75,17.98,15.19Z"/>
      <polygon class="cls-1" points="855.58 148.82 855.72 157.61 828.04 157.64 828.06 115.63 837.99 115.7 837.96 148.85 855.58 148.82"/>
      <path class="cls-1" d="M892.62,211.69c-6.51,6.37-15.81,5.16-21.87-1.45l5.34-6.49,5.42,2.37c1.13.49,3.42-1.41,4.53-2.56l.06-30.71h9.93s-.03,29.12-.03,29.12c0,2.69-1.29,7.68-3.38,9.73Z"/>
      <polygon class="cls-1" points="887.77 100.32 878 100.31 877.92 58.1 887.75 58.19 887.77 100.32"/>
      <rect class="cls-1" x="912.93" y="16.75" width="42.28" height="10" transform="translate(912.13 955.82) rotate(-89.99)"/>
      <rect class="cls-1" x="817.92" y="172.8" width="10.05" height="42.34"/>
      <polygon class="cls-1" points="785.66 157.41 775.63 157.63 775.56 116.07 785.57 115.68 785.66 157.41"/>
    </g>
  </g>
</svg>