<?xml version="1.0" encoding="UTF-8"?>
<svg id="Layer_2" data-name="Layer 2" xmlns="http://www.w3.org/2000/svg" viewBox="0 0 447.58 227.24">
  <defs>
    <style>
      .cls-1 {
        fill: #fff;
      }
    </style>
  </defs>
  <g id="Layer_1-2" data-name="Layer 1">
    <g>
      <path class="cls-1" d="M276.46,218.52h-72.28s-36.88.95-36.88.95l-18.68,1.35c-6.54.47-12.6.34-19.11.88l-12.02,1.01-12.97.91c-4.61.32-8.67,1.39-13.17,2.09-5.19.81-10.35.2-15.84,1.4-1.58.34-4.43.1-4.76-1.29-.71-3.03.01-3.46,2.26-4.01,34.4-8.39,68.71-14.78,104.23-17.04l33.83-2.15c17.07-1.08,34.08-.41,51.35-.27l17.17,1.19c4.93.34,9.76.48,14.92.9,38.29,3.1,75.66,8.89,113.03,17.54,1.47.34,1.51,4.18.51,4.71-4.92.85-11.12.07-16.4-.84-7.51-1.29-14.43-1.74-21.8-2.44l-20.81-1.98-16.86-.95-23.99-.94-31.71-1.02Z"/>
      <g>
        <path class="cls-1" d="M25.38,121.51c.72-2.58,2.86-6.97-.21-7.93C7.97,108.21.2,100.72,0,81.44c8.92,1.07,16.83.3,25.55-.24,4.36-.27,9.05,2.03,13.43.31,3.12-1.23,4.11-3.96,5.33-6.95l16.57-40.31c-3.41-2.93-7.26-1.19-10.93-.9-22.79,1.8-29.64,4.82-44.58,24.42-.67.17-1.41-.18-1.56-.5-.18-.37-.45-1.47-.15-2.17C16.31,25.26,31.71,7.1,65.58,3.24c9.88-1.13,19.82-2.14,29.54-1.54,9.04.56,17.33.02,26.4-.06l70.91-.65c3-.03,5.94-1.69,8.47-.65.5,2.77-1.07,4.76-2.14,6.92-6.89,14.08-12.97,23.48-31.09,24.95-21.34,1.73-42.5.55-64.11.46-8.47-.03-14.3-2.92-15.32,3.43-2.36,14.71-4.92,28.89-8.3,44.46l28.54.75c3.75.1,6.55.28,10.46-.79-4.11,23.6-19.7,34.08-42.43,34.99-3.29.13-5.28,1.31-6.21,4.6-5.49,19.43-10.58,38.47-17.16,57.65-8.37,24.38-24.46,50.76-52.06,48.73,6.52-36.15,14.55-70.16,24.29-104.98Z"/>
        <path class="cls-1" d="M394.99,180.86l1.32-11.22c-13.98,6.32-33.14,15.88-44.34,7.53s-6.04-34.23,3.8-48.81c15.92-23.61,36.57-38.88,64.4-45.44,14.02-3.31,29.69-3.08,27.13,7.04-5.49,21.71-11.49,42.7-19.2,63.59-5.03,13.63-18.17,28.68-33.12,27.32ZM397.98,142.39c7.25-11.2,12.02-23.27,16.27-36.73-3.83-1.6-7.93-.62-11.67,1.58-23.56,13.82-33.11,44.73-25.48,49.85,5.56,3.73,15.38-6.2,20.88-14.69Z"/>
        <path class="cls-1" d="M293.53,160.14c-7.1,20.02-35.57,20.98-57.06,20.39-7.85-.21-15.34-1.06-23.43,1.1.25-4.3,2.29-7.44,4.18-11,9.13-17.25,25.76-10.2,43.01-13.67,3.5-.7,6.15-3.61,6.55-6.47.94-6.68-8.11-10.51-16.76-13.9-10.68-4.19-16.1-14.25-14.41-25.74,2.03-13.82,12.88-25.11,27.08-26.5l20.86-2.04c8.9.45,16.89,1.4,26.68-.54-10.01,31.3-27.17,20.11-43.4,24.37-2.87.75-4.85,3.44-5.38,5.59-2.92,11.91,19.43,11.47,27.63,20.79,6.7,7.61,7.98,17.67,4.45,27.63Z"/>
        <path class="cls-1" d="M135.36,150.94c-5.29,15.83-15.28,30.75-33.26,30l3.55-19.97c2.93-16.44,7.76-31.99,14.77-47.1,10.12-21.84,24.8-29.21,47.68-31.17,2.93-.25,5.11-.8,8.02-.29,8.24,1.43,16.3.78,25.07-1-8.01,29.9-25.66,21.21-41.32,24.72-6.24,1.4-11.24,5.06-13.28,11.15l-11.25,33.66Z"/>
        <path class="cls-1" d="M210.6,152.01c-5.79,15.94-15.8,29.53-33.35,29.26,4.42-28.44,12.43-61.6,28.88-83.64,11.24-15.06,25.72-19.29,23.87-11.74-5.51,22.45-11.5,44.39-19.39,66.13Z"/>
        <path class="cls-1" d="M334.12,150.6c-5.94,16.62-15.35,30.73-33.85,30.66,4.78-29.79,13.66-67.28,32.97-88.44,10.57-11.58,21.36-13.37,19.76-6.84-5.35,21.95-11.25,43.3-18.88,64.62Z"/>
        <path class="cls-1" d="M243.05,57.94c1.78,6.15-12.55,14.09-21.74,17.65-1.7.66-3.74.05-4.54-1.18-.7-1.07-1.1-3.39.1-5.12l13.05-18.71c3.64-1.51,12.82,6.3,13.13,7.37Z"/>
      </g>
    </g>
  </g>
</svg>