<svg xmlns="http://www.w3.org/2000/svg" width="166" height="45.399" viewBox="0 0 166 45.399">
  <g id="Grupo_10671" data-name="Grupo 10671" transform="translate(-34.7 -569.782)">
    <path id="Caminho_1173" data-name="Caminho 1173" d="M34.7,599.961c.089-1.646.067-3.294.008-4.941l.006-12.3-.008-7.158c3.084-2.9,6.559-5.149,10.852-5.611,8.556-.921,15.612,1.863,20.817,8.852a22.788,22.788,0,0,1,3.146,5.871c.232.64.426.842,1.16.595a20.458,20.458,0,0,1,5.941-.84,88.6,88.6,0,0,1,11.36.16c3.892.379,6.1,2.54,6.228,6.433.119,3.685.065,7.375.085,11.063.006,1.138-.013,2.277.022,3.414.018.569-.156.805-.764.818a12.717,12.717,0,0,1-4.066-.353,3.161,3.161,0,0,1-2.414-2.172c-.194-.7-.767-.764-1.128-.111-1.238,2.24-3.336,2.889-5.642,2.988a53.732,53.732,0,0,1-10.118-.173,6.4,6.4,0,0,1-2.922-1.069.8.8,0,0,0-1.167-.019,5.045,5.045,0,0,1-3.468.946c-2.6-.115-5.2-.09-7.807-.065a2.29,2.29,0,0,1-1.8-.747c-2.441-2.459-4.968-4.837-7.357-7.345a2.969,2.969,0,0,0-2.622-.717c-.576.014-.423.494-.424.82q-.014,3.209,0,6.42c.006,1.64.011,1.64-1.688,1.484A6.443,6.443,0,0,1,34.7,599.961Zm7.8-16.154h.036q0,3.279,0,6.559c0,1.489.032,1.481,1.53,1.427a1.853,1.853,0,0,0,1.261-.708q3.027-2.875,6.047-5.755a2.016,2.016,0,0,1,1.532-.718c2.878.058,5.757.036,8.636.053.257,0,.646-.137.745.1.152.359-.284.513-.5.714-.732.686-1.487,1.348-2.235,2.018q-3.772,3.379-7.549,6.752c-.35.312-.566.526-.091.952q5.448,4.891,10.858,9.823c.337.305.639.461,1.084.173a12.147,12.147,0,0,1,1.11-.522,1.062,1.062,0,0,0,.634-1.532,9.04,9.04,0,0,1-.367-4.183,5.506,5.506,0,0,1,3-4.871c1.267-.624,1.372-.892,1.3-2.3-.024-.479-.2-.646-.648-.638-.731.013-1.463-.007-2.193,0-.46.007-.628-.121-.556-.642a5.321,5.321,0,0,1,1.8-3.709,1.255,1.255,0,0,0,.387-1.74,23.57,23.57,0,0,0-4.422-7.324,20.148,20.148,0,0,0-13.8-6.7,18.627,18.627,0,0,0-13.282,4.082c-.138.105-.331.223-.236.425.03.064.249.053.381.053,1.462.006,2.925,0,4.387.012,1.123.007,1.136.014,1.139,1.091C42.5,579.07,42.5,581.438,42.5,583.807Zm37.369,12.855a20.736,20.736,0,0,0-5.307.247,2.736,2.736,0,0,0-2.245,3.1,2.619,2.619,0,0,0,2.432,2.381,31.427,31.427,0,0,0,8.579.11,5.8,5.8,0,0,0,2.1-.54,2.6,2.6,0,0,0,1.493-2.8,2.451,2.451,0,0,0-1.884-2.244,5.159,5.159,0,0,0-1.614-.25C82.238,596.664,81.053,596.662,79.868,596.662Zm-.019-7.676a30.1,30.1,0,0,0-4.184.22,2.012,2.012,0,0,0-1.754,1.31c-.207.612-.606.709-1.152.65a6.111,6.111,0,0,0-.685,0c-1.377.006-1.346.007-1.378,1.313-.016.654.1.8.834.747a72.231,72.231,0,0,1,11.212-.123,4.221,4.221,0,0,1,2.6,1.073,3.069,3.069,0,0,0,.511.448c.45.253.831.058.832-.461a21.462,21.462,0,0,0-.117-2.453,2.49,2.49,0,0,0-2.308-2.456A22.946,22.946,0,0,0,79.849,588.986Z" transform="translate(0 0)" fill="#fff"/>
    <path id="Caminho_1174" data-name="Caminho 1174" d="M220.226,635.74c0,1.64-.027,3.28.014,4.919.018.736-.257.99-.965.888a9.5,9.5,0,0,1-3.776-1.1,5.609,5.609,0,0,1-2.819-4.86c-.069-2.639-.082-5.28-.094-7.921-.021-4.873-.023-9.746-.033-14.62,0-.319.009-.638,0-.956-.016-.506.191-.741.728-.733q2.809.037,5.62.024c.645,0,.912.258.86.9a13.254,13.254,0,0,0,0,1.366c.006.261-.053.568.3.669a.665.665,0,0,0,.827-.3c1.427-2.476,3.863-2.857,6.373-2.986a42.386,42.386,0,0,1,8.886.259,13.854,13.854,0,0,1,1.735.375,6.214,6.214,0,0,1,4.881,5.44,32.784,32.784,0,0,1-.133,10.736,5.752,5.752,0,0,1-4.736,4.873,33.525,33.525,0,0,1-12.516.242,5.789,5.789,0,0,1-3.839-2.4c-.054-.074-.113-.144-.16-.222a.7.7,0,0,0-.783-.41c-.445.092-.376.459-.377.762-.006,1.321,0,2.641.007,3.962C220.226,635.012,220.226,635.376,220.226,635.74Zm7.886-7.976a21.368,21.368,0,0,0,4.471-.348,3.088,3.088,0,0,0,2.623-2.45,15.949,15.949,0,0,0,.15-5.02,3.292,3.292,0,0,0-2.943-3.111,26.413,26.413,0,0,0-9.121-.035,3.222,3.222,0,0,0-2.845,2.891,13.09,13.09,0,0,0-.075,4.613,3.359,3.359,0,0,0,2.953,3.108A23.655,23.655,0,0,0,228.113,627.765Z" transform="translate(-114.099 -26.388)" fill="#fff"/>
    <path id="Caminho_1175" data-name="Caminho 1175" d="M335.418,625.423c0,2.231,0,4.462,0,6.693,0,1.556.132,1.326-1.418,1.361a10.922,10.922,0,0,1-2.991-.26,3.468,3.468,0,0,1-2.824-2.275c-.213-.671-.792-.714-1.169-.07-1.25,2.135-3.245,2.767-5.541,2.907a57.57,57.57,0,0,1-9.165-.015c-.273-.027-.549-.028-.818-.071-3.64-.586-5.114-2.295-5.167-6.01a13.2,13.2,0,0,1,.085-2.181c.454-2.948,2.349-4.692,5.567-5.094a72.727,72.727,0,0,1,11.353-.252,4.682,4.682,0,0,1,3.249,1.244c.275.269.578.505.965.332.367-.164.222-.552.22-.845a9.141,9.141,0,0,0-.234-2.707,2.2,2.2,0,0,0-1.762-1.693,10.874,10.874,0,0,0-1.48-.247,59.345,59.345,0,0,0-6.845.01,2.4,2.4,0,0,0-2.5,1.518c-.157.456-.457.486-.841.484-2.055-.014-4.11-.034-6.165-.018-.611,0-.786-.191-.689-.8a5.868,5.868,0,0,1,3.685-4.723,14.873,14.873,0,0,1,4.93-1.029,87.535,87.535,0,0,1,12.726-.029,8.989,8.989,0,0,1,2.935.6,5.682,5.682,0,0,1,3.647,4.581,18.3,18.3,0,0,1,.24,2.852c0,1.912,0,3.825,0,5.737Zm-14.02-1.773c-1.225,0-2.092.019-2.957-.005a11.694,11.694,0,0,0-2.574.29,2.755,2.755,0,0,0-2.423,2.7,2.625,2.625,0,0,0,2.287,2.776,7.666,7.666,0,0,0,1.611.268c2.142.1,4.282.087,6.424-.02a8.764,8.764,0,0,0,2.147-.375,2.686,2.686,0,0,0,2.158-3.032c-.1-1.309-.965-2.121-2.53-2.4A27.377,27.377,0,0,0,321.4,623.651Z" transform="translate(-174.252 -26.721)" fill="#fff"/>
    <path id="Caminho_1176" data-name="Caminho 1176" d="M409.3,634.331q-6.026,0-12.052,0c-1.139,0-1.146-.018-1.159-1.114-.013-1.047.033-2.1-.027-3.139a1.664,1.664,0,0,1,.8-1.583c4.207-3.125,8.387-6.286,12.575-9.436a2.462,2.462,0,0,0,.216-.168c.255-.24.813-.368.724-.705-.1-.366-.62-.16-.946-.163-3.606-.033-7.213-.044-10.82-.061a5.242,5.242,0,0,0-.684,0c-.664.084-.885-.2-.861-.851.039-1.091.043-2.186-.012-3.276-.038-.739.254-.927.952-.912,2.92.064,5.841.094,8.761.113,4.656.029,9.313.037,13.969.06,1.037.005,1.045.015,1.054,1.024.011,1.229-.051,2.462.029,3.685a1.847,1.847,0,0,1-.926,1.786c-3.852,2.758-7.681,5.55-11.518,8.331-.406.294-.813.586-1.212.89-.1.075-.24.2-.23.287.031.273.279.141.422.144.958.019,1.917.015,2.876.017q5,.012,10,.027c1.05,0,1.059.016,1.074,1.018s.013,2,.007,3c-.006,1.106-.012,1.118-1.1,1.118-3.059,0-6.118-.011-9.177-.017-.913,0-1.826,0-2.739,0Z" transform="translate(-231.827 -27.677)" fill="#fff"/>
    <path id="Caminho_1177" data-name="Caminho 1177" d="M484.065,623.828c0,3.139.006,6.278,0,9.416,0,1.055-.02,1.055-1.058,1a6.357,6.357,0,0,1-6.458-6.405c-.225-4.5-.07-9-.149-13.5-.013-.716.2-.942.927-.923,1.961.05,3.924.048,5.886.01.667-.013.85.2.844.852-.03,3.184-.014,6.368-.014,9.552Z" transform="translate(-283.366 -27.991)" fill="#fff"/>
    <path id="Caminho_1178" data-name="Caminho 1178" d="M480.3,593.856c-1.047,0-2.094-.016-3.14.006-.575.012-.807-.2-.793-.794.032-1.361.023-2.723,0-4.084-.006-.458.148-.657.624-.653,2.139.018,4.278.02,6.417.021.382,0,.6.136.6.545,0,1.5-.006,2.995,0,4.492,0,.528-.285.534-.709.518-1-.038-2-.012-3-.012Z" transform="translate(-283.347 -11.901)" fill="#fff"/>
  </g>
</svg>
