<?xml version="1.0" encoding="UTF-8"?>
<svg id="Layer_2" data-name="Layer 2" xmlns="http://www.w3.org/2000/svg" viewBox="0 0 346.2 124.91">
  <defs>
    <style>
      .cls-1 {
        fill: #fff;
      }
    </style>
  </defs>
  <g id="Layer_1-2" data-name="Layer 1">
    <g>
      <path class="cls-1" d="M25.76,2.1h40.31l24.71,83.74h.38L108.11,2.1h30.45l-25.61,120.75h-40.13l-25.27-83.55h-.34l-16.76,83.55H0L25.76,2.1Z"/>
      <path class="cls-1" d="M150.45,2.1h32.36l-9.53,46.2h38.25l9.53-46.2h32.36l-25.09,120.75h-32.55l10.73-51.71h-38.06l-10.73,51.71h-32.32L150.45,2.1Z"/>
      <path class="cls-1" d="M338.51,29.44c-8.29-3.82-17.34-5.72-26.47-5.55-12.79,0-23.18,1.91-23.18,11.59,0,17.14,46.88,10.72,46.88,47.4,0,33.38-30.98,42.04-58.99,42.04-12.73-.3-25.36-2.39-37.5-6.22l7.5-24.56c6.41,4.16,19.2,6.94,29.74,6.94s25.76-1.91,25.76-14.36c0-19.39-46.88-12.11-46.88-46.2,0-31.13,27.34-40.5,53.81-40.5,15,0,28.87,1.58,37.01,5.36l-7.69,24.07Z"/>
    </g>
  </g>
</svg>