<?xml version="1.0" encoding="UTF-8"?>
<svg id="Layer_1" xmlns="http://www.w3.org/2000/svg" version="1.1" viewBox="0 0 2071.21 842.33">
  <!-- Generator: Adobe Illustrator 30.3.0, SVG Export Plug-In . SVG Version: 2.1.3 Build 182)  -->
  <g>
    <path d="M491.84,425.67c-17.18,32.44-34.2,64.97-51.29,97.47-28.82,54.81-57.67,109.61-86.5,164.42-26.45,50.27-52.91,100.54-79.29,150.85-1.45,2.76-3.1,3.9-6.33,3.86-14.99-.14-29.99.02-44.98.07-.71,0-1.43-.12-2.68-.23C147.29,702.05,73.73,561.82,0,421.27c4.59-8.77,9.21-17.66,13.87-26.53,34.51-65.65,69.01-131.3,103.54-196.93,31.05-59,62.12-117.99,93.18-176.99,3.06-5.82,6.21-11.59,9.12-17.49C220.83,1.08,222.25-.01,224.77,0c17.55.05,35.1.04,52.64.08.5,0,.99.3,1.99.63-1.37,2.7-2.62,5.26-3.95,7.78-36.91,70.16-73.82,140.31-110.74,210.47-27.64,52.54-55.27,105.09-82.92,157.64-7.14,13.58-14.27,27.16-21.53,40.69-1.42,2.65-1.6,4.75-.11,7.58,31.57,59.77,63.03,119.59,94.5,179.41,29.67,56.41,59.32,112.84,89,169.26,1,1.9,2.1,3.77,3.5,6.28,63.09-119.91,125.84-239.17,188.66-358.57-5.39-10.28-10.71-20.48-16.06-30.65-23.64-44.95-47.3-89.89-70.96-134.82-5.02-9.54-10.05-19.07-15.09-28.6-1.04-1.98-1.78-3.66-.48-6.08,9-16.73,17.8-33.56,26.68-50.35.25-.47.66-.84,1.49-1.87,7.81,14.84,15.38,29.22,22.95,43.6,26.46,50.28,52.92,100.55,79.37,150.83,9.35,17.78,18.61,35.62,28.12,53.32,1.77,3.29,1.73,5.79,0,9.05Z" fill="#fff"/>
    <path d="M618.71,421.19c-73.81,140.29-147.54,280.45-221.32,420.68h-58.31c73.95-140.57,147.58-280.54,221.3-420.68-62.75-119.26-125.5-238.52-188.77-358.76-63.26,120.24-125.99,239.46-188.75,358.76,8.24,15.68,16.39,31.2,24.55,46.71,24.41,46.41,48.83,92.81,73.25,139.21.08.16.14.33.22.5,1.81,3.76,4.99,7.5,5.05,11.29.05,3.56-3.13,7.21-5,10.77-6.96,13.26-13.96,26.51-20.97,39.75-.65,1.22-1.48,2.35-2.64,4.17-44.46-84.51-88.57-168.35-132.77-252.37,6.15-11.69,12.26-23.32,18.38-34.95,30.62-58.2,61.23-116.41,91.85-174.61,29.1-55.3,58.23-110.58,87.33-165.88,7.4-14.06,14.81-28.12,22.13-42.23,1.08-2.08,2.11-3.54,4.85-3.52,16.07.12,32.15.05,48.71.05,73.58,140.27,147.23,280.66,220.91,421.13Z" fill="#fff"/>
  </g>
  <g>
    <path d="M1294.49,508.79h-5.65c-10.97,0-21.94-.14-32.91.08-3.79.08-6.4-1.04-8.94-3.92-29.54-33.42-59.19-66.73-88.82-100.06-1.29-1.44-2.6-2.87-3.89-4.3-.37.14-.74.28-1.11.42v107.4h-43.05c-1.24-3.91-1.84-153.72-.63-169.46,1.3-.14,2.68-.41,4.06-.42,12.07-.03,24.14.1,36.2-.1,3.12-.05,5.02,1.16,6.96,3.35,29.7,33.52,59.46,66.98,89.21,100.45,1.29,1.45,2.66,2.83,4.92,5.23v-108.62h43.17c1.13,3.98,1.64,156.89.48,169.94Z" fill="#fff"/>
    <path d="M843.59,446.64c1.3-.93,2.32-1.68,3.35-2.41,20.24-14.32,30-33.37,26.33-58.45-2.9-19.83-13-34.19-31.91-41.77-8.73-3.49-17.89-5.4-27.26-5.43-36.38-.15-72.75-.07-109.13-.04-1.2,0-2.41.31-3.53.47-1.07,10.8-.6,165.5.49,169.49h43.14v-52.37h53.22c.9,1.47,1.88,3.01,2.79,4.57,8.37,14.36,16.89,28.63,25.01,43.13,2.18,3.91,4.71,5.17,9.04,5.06,11.51-.29,23.03-.1,34.55-.1h10.07c-12.48-21.44-24.28-41.72-36.17-62.15ZM822.44,411.46c-3.14,6.94-7.97,10.71-16.2,10.53-18.28-.4-36.57-.13-54.86-.13h-6.06v-49.17c1.74-.15,3.31-.4,4.88-.41,17.38-.03,34.75-.02,52.12,0,1.83,0,3.67.04,5.47.26,8.49,1.02,14.15,5.9,16.07,14.2,1.94,8.34,2.2,16.67-1.43,24.72Z" fill="#fff"/>
    <path d="M1454.84,338.74h-59.35c-24.88,56.45-49.73,112.83-74.79,169.67h50.28c3.83-9.63,7.53-18.93,11.22-28.19h85.92c3.83,9.6,7.6,19.02,11.25,28.16h50.24c-25.12-56.99-49.98-113.39-74.77-169.64ZM1395.61,446.02c9.81-24.92,19.36-49.21,28.92-73.49.41,0,.83,0,1.24,0,9.52,24.16,19.04,48.32,28.93,73.44-19.9.1-39.08.03-59.09.05Z" fill="#fff"/>
    <path d="M1068.31,474.87v33.61h-147.62v-169.69h144.94c1.17,3.82,1.52,22.86.53,33.28-5.44.43-11.04.13-16.61.19-5.67.05-11.34.01-17.01.01h-67.8v34.03h90.82v33.81h-90.87v34.54c8.48.48,16.99.14,25.49.2,8.78.05,17.56.01,26.33.01h51.8Z" fill="#fff"/>
    <path d="M1726.56,450.36c-.01,4.74-.25,9.54-1.03,14.2-2.95,17.58-12.97,29.82-29.06,37.22-11.43,5.25-23.62,7.5-36.01,8.87-5.08.57-10.19,1.06-15.29,1.34-19.54,1.06-38.73-.94-57.13-7.82-5.75-2.15-11.33-5.18-16.36-8.71-12.79-8.96-19.1-21.74-20.17-37.19-.15-2.18-.12-4.39-.12-6.58-.01-35.45,0-70.91,0-106.37v-6.56h43.95v6.62c0,34.36.21,68.72-.14,103.07-.09,9.06,3.8,14.88,11.11,19.18,5.75,3.38,12.03,5.29,18.56,6.33,13.01,2.06,25.88,1.56,38.42-2.76,3.08-1.06,6.08-2.5,8.92-4.13,6.83-3.95,10.35-9.57,10.28-17.91-.28-29.24-.12-58.48-.1-87.72,0-6.03.06-12.06.13-18.09.02-1.43.21-2.85.34-4.54h43.36c.13,1.52.38,3.08.38,4.64.02,35.64.05,71.27-.03,106.91Z" fill="#fff"/>
    <path d="M2071.21,338.71v33.49h-66.05v136.24h-43.91c-.04-7.43-.1-14.83-.13-22.24-.02-7.67,0-15.35,0-23.02v-90.92h-65.45c-1.25-6.75-.98-29.9.27-33.55h175.27Z" fill="#fff"/>
    <polygon points="1915.79 474.87 1915.79 508.45 1775.62 508.45 1775.62 338.87 1819.23 338.87 1819.23 474.87 1915.79 474.87" fill="#fff"/>
  </g>
</svg>