<?xml version="1.0" encoding="UTF-8"?>
<svg id="Layer_2" data-name="Layer 2" xmlns="http://www.w3.org/2000/svg" viewBox="0 0 2013.69 976.41">
  <defs>
    <style>
      .cls-1 {
        fill: #fff;
      }
    </style>
  </defs>
  <g id="Layer_1-2" data-name="Layer 1">
    <g>
      <path class="cls-1" d="M1756.52,740.14c-93.01,29.86-198.55,37.47-295.42,28.11-65.49-6.33-132.84-23.13-190.71-54.32-73.44-39.58-129.9-106.2-123.13-193.54,6.24-80.53,53.92-142.13,118.81-186.84,74.55-51.37,163.07-80.86,252.93-92.19,65.81-8.29,131.82-8.79,197.66-.98,74.38,8.82,148.15,31.31,208.94,75.2,53.8,38.85,89.98,91.45,88.01,159.87-1.84,64.02-30.15,119-76.04,162.74-48.79,46.51-116.92,81.36-181.05,101.95ZM1745.65,584.2c29.13-27.74,45.54-65.56,44.3-105.96-1.37-44.98-31.62-79.87-71.23-98.71-21.09-10.03-42.8-16.26-66.13-19.7-86.49-12.77-190.22,6.42-249.69,74.57-21.55,24.7-33.38,55.16-34.12,87.96-1.66,74.32,71.44,115.23,138.2,124.76,82.31,11.74,177.05-4.24,238.67-62.92Z"/>
      <path class="cls-1" d="M605.21,599.31l141.67,162.27-235.37.11-117.69-137.06h-119.5s-14.92,94.02-14.92,94.02c-2.35,9.85-8.1,17.3-15.87,23.54-15.84,12.24-34.37,18.21-54.8,19.43H32.78S114.65,245.23,114.65,245.23l367.07.04c30.18,0,59.21,2.61,88.92,6.08,50.79,7.26,99.87,19.68,143.76,46.45,39.67,24.38,68.65,59.95,70.28,107.83,1.51,44.27-14.87,86.28-45.19,118.44-17.49,18.51-37.76,32.69-60.16,44.92-23.47,12.62-47.46,21.8-74.12,30.33ZM562.52,427.46c1.65-33.33-24.66-51.62-54.89-59.86-20.4-5.39-40.44-7.01-61.96-7.71l-263.16.09,127.23,41.07-17.43,109.87,126.44-.03c22.59-.54,43.83-2.07,65.55-7.15,40.49-9.48,76.04-32.03,78.22-76.29Z"/>
      <path class="cls-1" d="M1038.19,761.53l-173.05-.1c-11.91,0-21.82-6.12-30.11-13.2-7.75-9.94-10.98-22.08-8.89-35.28l74-467.95,156.51.14c16.11.01,30.6,5.56,42.89,14.3,9.22,7.49,14.72,17.09,13.64,29.27l-75,472.83Z"/>
      <path class="cls-1" d="M1052.55,112.77c6.28,25.16-8.15,49.21-10.29,47.72l-2.69-1.87c-6.95-14-15.62-26.33-26.4-37.44-8.76-7.66-23.98-19.38-29.19-11.48.99,14.7,1.19,30.78-1.47,45.13-.2,1.08-4.2.6-4.86-.19-10.22-10.31-21.96-17.94-35.09-23.77-4.86-1.1-9.13.73-10.97,5.32-8.83,20.22.82,40.35,10.87,60.96-21.45-1.27-42.11-6.55-61.38-15.87-14.63-7.08-25.13-18.88-31.51-33.68l-9.93-28.24c-6.45-18.34-35.18-29.25-55.19-35.66,40.81-2.56,86.58-2.46,126.89,9.98,3.42-10.61,2.43-21.98-1.12-32.76-9.69-25.85-29.32-43.19-51.26-60.92,31.56,1.22,60.84,4.57,90.65,10.44,41.96,8.27,88.99,23.61,118.84,56.18,6.46-10.31,4.09-22.31-3.95-31-6.69-7.23-15.2-11.14-24.1-16.37,38.05,4.5,82.61,19.8,108.05,47.56,14.42,15.73,23.31,35.76,23,57.21-.38,26.02-21.97,51.4-44.4,64.6l-15.01,9.94c-11.78-4.91-23.44-9.99-34.21-17.94,17.46-6.83,37.38-13.05,47.83-26.24,4.7-5.93,3.91-13.4-1-18.92s-11.59-9.71-18.54-13.4c-15.83-7.44-32.02-12.27-49.28-15.39l-3.64,1.65c-.98.44-.94,3.28-.65,4.45Z"/>
      <path class="cls-1" d="M1506.37,973.6l-46.48.02-75.32-69.67-9.62,60.2c-3.64,5.8-9.5,8.39-16.19,9.48l-40.27-.02,19.52-121.98c.88-5.52,10.06-9.18,14.68-9.23l32.53-.33,106.52,96.72-28.57-39.59,7.68-48.65c2.88-4.53,8.25-8.24,14.1-8.26l42.22-.15-20.79,131.44Z"/>
      <path class="cls-1" d="M502.67,945.35c-34.02,28.25-83.21,34.98-126.45,28.91-39.31-5.52-81.03-30.14-69.58-72.03,3.87-14.15,12.62-25.75,24.51-34.63,15.62-11.67,33.15-19.39,52.48-23.57,26.5-5.73,53.54-6.16,80.08-.73,34.75,7.11,69.89,31.04,60.25,69.09-3.34,13.16-10.7,24.15-21.3,32.96ZM453.78,931.38c10.92-8.51,17.19-22,13.67-35.75-2.53-9.85-10.68-17.03-20.39-20.54-30.59-11.06-74.31-1.66-84.07,28.1-4.35,13.28.38,25.79,11.92,33.3,21.13,13.76,57.74,11.36,78.87-5.12Z"/>
      <path class="cls-1" d="M181.54,973.39l-59.8.3-29.78-34.76-30.4-.08-4.16,25.91c-3.62,5.26-9.3,7.7-15.66,8.89l-41.74-.05,20.8-131.46,97.96.12c11.15.01,21.37,1.99,31.98,3.93,18.08,5.2,36.06,13.39,40.2,32.31,3.37,28.95-17.69,45.53-45.07,53.81l35.67,41.08ZM125.56,903.7c7.49-4.59,11.23-13.16,7.95-21.13-3.52-8.53-17.85-11.12-28.7-11.11l-66.13.07,31.95,10.37-4.45,27.81,37.83-.05c7.49-.89,14.9-1.89,21.56-5.97Z"/>
      <path class="cls-1" d="M929.18,842.47c6.74.05,12.03,4.44,14.01,10.1l-9.72,62.15c-5.22,33.36-32.72,51.64-64.56,57.96-30.24,6-73.23,6.05-99.83-9.56-14.84-8.71-24.31-25.08-21.57-42.84l12.04-78.1,40.04.26c6.33.04,11.91,4.25,14.29,9.9l-10.18,68.1c-1.61,10.77,6.38,20.08,16.27,22.72,24.11,6.44,53.78-.55,57.83-25.7l12.12-75.3,39.27.3Z"/>
      <path class="cls-1" d="M1283.08,920.85l-87.81.05-3.76,24.01,103.06.03-4.52,28.72-136.08-.05c-6.22,0-11.42-2.97-16.05-6.23-1.85-2.24-4.41-5.79-3.89-9.11l18.35-116.11,154.87.02-4.5,28.93-132.77.06,31.42,10.91-1.64,10.84h87.65s-4.32,27.93-4.32,27.93Z"/>
      <path class="cls-1" d="M1882.17,920.85l-87.81.05-3.76,24.02,103.05.03-4.51,28.72-136.17-.05c-5.87,0-11.05-2.91-15.42-5.72-3.23-3.39-4.88-6.86-4.12-11.66l18.08-114.07h154.86s-4.5,28.94-4.5,28.94l-132.43.12,31.04,10.88-1.59,10.82,87.61.02-4.31,27.91Z"/>
      <path class="cls-1" d="M664.61,972.35c-33.35,6.9-77.64,4.91-110.18-5.4-3.15-1-6.01-4.09-6.75-6.47-.93-2.99.45-7.13,2.52-9.59l13.86-16.44c25.18,10.61,52.45,14.74,79.65,11.82,8.09-.87,16.99-4.39,17.19-10.38.15-4.5-8.4-8.39-14.91-9.46l-36.96-6.11c-13.86-2.29-27.21-5.78-39.32-12.58-10.02-5.62-14.61-16.16-12.07-27.32,5.18-22.78,33.89-34.21,56.5-37.94,32.66-5.39,75.78-4.12,107.02,8.54l-14.44,18.26c-5.46,6.91-15.87,6.35-23.75,4.25-17.82-4.75-35.65-6.24-53.79-3.69-8.61,1.21-16.96,5.6-16.21,11.86.67,5.63,13.61,8.83,22.54,9.88,18.36,2.16,36.05,5.05,53.79,10.14,7.9,2.27,15.04,5.68,20.75,11.46,12.33,12.47,6.56,32.59-9.47,44.04-10.77,7.69-22.81,12.41-35.97,15.13Z"/>
      <path class="cls-1" d="M1656.62,972.35c-33.32,6.85-77.77,5-110.19-5.39-2.67-.86-5.16-3.22-6.19-4.97-1.43-2.44-1.11-7.34.59-9.38l15.17-18.17c25.28,10.69,52.51,14.74,79.73,11.83,8.06-.86,16.84-4.3,17.13-10.38.22-4.63-8.77-8.48-15.76-9.63l-36.9-6.07c-13.58-2.23-26.67-5.77-38.53-12.44-10.32-5.81-14.85-16.86-11.86-28.21,12.53-47.64,121.24-46.75,163.34-28.51l-14.44,18.26c-5.18,6.55-15.36,6.45-22.92,4.43-17.79-4.75-35.54-6.41-53.74-4.01-8.3,1.1-16.83,4.69-17.2,11.22-.34,6.06,13.16,9.55,22.68,10.67,18.36,2.15,36.05,5.06,53.79,10.16,7.88,2.26,15.09,5.68,20.68,11.46,12.46,12.88,6.28,32.81-9.42,44-10.75,7.67-22.8,12.43-35.94,15.13Z"/>
      <path class="cls-1" d="M982.76,944.12l112.98.1c3.6,0,10.45,3.64,9.98,7.16l-2.98,22.26h-149.85s20.81-131.46,20.81-131.46h41.93c5.75,1.3,10.85,3.4,12.66,9.31l-12.57,79.43-32.95,13.2Z"/>
      <polygon class="cls-1" points="266.62 973.63 210.55 973.65 231.34 842.29 287.44 842.13 266.62 973.63"/>
    </g>
  </g>
</svg>