<?xml version="1.0" encoding="UTF-8"?>
<svg id="Layer_2" data-name="Layer 2" xmlns="http://www.w3.org/2000/svg" viewBox="0 0 10300.78 2640.78">
  <defs>
    <style>
      .cls-1 {
        fill: #fff;
        fill-rule: evenodd;
      }
    </style>
  </defs>
  <g id="svg731">
    <g>
      <polygon class="cls-1" points="7645.46 754.91 7229.65 1525.69 7725.52 1525.69 7653.18 754.91 7645.46 754.91"/>
      <path class="cls-1" d="M10300.78,399.85V0H0v399.85h539.77v55.14H0v391.33h539.77v55.14H0v391.39h539.77v55.14H0v391.33h539.77v55.14H0v391.33h539.77v55.14H0v399.85h10300.78v-399.85h-539.77v-55.14h539.77v-391.33h-539.77v-55.14h539.77v-391.33h-539.77v-55.14h539.77v-391.39h-539.77v-55.14h539.77v-391.33h-539.77v-55.14h539.77ZM2535.14,937.35h-513.83c17.51-71.93,5.95-125.9-32.16-164.41-35.54-38.57-98.03-59.11-185.41-59.11-118.17,0-237.2,77.08-256.89,169.56-28.73,136.2,126.3,179.86,254.77,215.86,294.2,79.6,739.53,110.45,633.32,611.46-83.09,390.57-507.88,575.98-936.9,575.98s-785.37-126.35-686.02-629.94h513.83c-39.37,174.71,68.5,269.82,253.51,269.82,118.63,0,283.04-61.69,309.19-185.01,53.51-251.79-338.32-197.83-703.99-375.11-170.02-82.23-226.1-251.79-183.69-452.2,113.88-439.32,524.99-560.13,912.92-560.13s746.85,136.2,621.36,583.24ZM4109.71,1494.9h-827.31l-83.49,393.08h899.25l-76.68,359.72h-1413.07l394.34-1855.03h1413.13l-76.63,359.66h-899.3l-81.32,382.84h827.31l-76.22,359.72ZM5408.9,2247.71l-327.62-1420.86h-5.09l-301.92,1420.86h-462.44l394.34-1855.03h719.44l327.96,1382.29,6.01-5.15,292.94-1377.14h462.44l-394.4,1855.03h-711.66ZM7821.43,2247.71l-46.24-362.3h-752.8l-197.83,362.3h-513.83l1126.6-1855.03h626.91l337.86,1855.03h-580.67ZM9111.24,2247.71h-513.83l394.34-1855.03h513.89l-394.4,1855.03Z"/>
    </g>
  </g>
</svg>