<?xml version="1.0" encoding="UTF-8"?>
<svg id="Layer_2" data-name="Layer 2" xmlns="http://www.w3.org/2000/svg" viewBox="0 0 574.66 141.72">
  <defs>
    <style>
      .cls-1 {
        fill: #fff;
      }

      .cls-2 {
        fill: #ccc;
      }
    </style>
  </defs>
  <g id="Layer_1-2" data-name="Layer 1">
    <g>
      <path class="cls-2" d="M85.56,44.18c-.03,5.81-1.54,8.74-3.41,8.96-1.23.14-2.63-.87-3.92-2.97-4.19-6.89-8.79-13.46-13.66-19.9,0-.01,0-.03.01-.04,1.89-10.17,4.92-20.55,10.1-29.57,6.48,13.06,10.95,29,10.87,43.53M61.24,43.84c4.58,4.1,5.83,7.38,4.81,9.17-.67,1.17-2.34,1.72-4.79,1.44-8.21-.97-16.4-1.34-24.69-1.4h0s-.02-.03-.03-.04c-7.82-9.31-14.9-19.8-19.45-31.12,15.51,3.67,32.28,11.34,44.14,21.96M45.6,65.08c6.12-1.29,9.47-.23,10.22,1.79.49,1.33-.12,3.1-1.85,4.99-5.73,6.25-10.98,12.82-16.02,19.66h-.05c-12.34.91-25.17.4-37.21-2.6,12.27-10.87,28.9-20.47,44.92-23.85M52.59,91.26c2.68-5.7,5.53-7.84,7.5-7.24,1.29.39,2.24,1.95,2.59,4.46,1.1,7.92,2.7,15.7,4.64,23.48h0s-.02.02-.03.04c-6.71,9.53-13.91,18.7-22.95,26.16-1.07-15.39,1.73-33.01,8.25-46.9M75.77,100.61c-2.38-5.21-2.2-8.74-.59-9.97,1.06-.8,2.75-.65,4.71.51,6,3.54,12.18,6.85,18.67,9.48h0s0,.03,0,.04c2.33,9.74,3.69,19.96,3.09,29.99-10.79-7.07-20.58-18.45-25.88-30.05M96.18,87.77c-4.93-1.09-7.3-3.3-7.14-5.32.1-1.32,1.25-2.59,3.27-3.49,6.21-2.75,12.33-5.78,18.1-9.41,0,0,.02.01.03.02,7.64,3.9,14.99,8.85,20.89,15.12-10.74,4.19-24.03,5.53-35.15,3.07M100.22,63.55c-3.91,3.42-6.92,4-8.24,2.61-.86-.91-1.04-2.67-.38-4.94,2.07-7.21,3.68-14.5,5.02-21.9,0,0,.02,0,.03-.01,7.88-3.69,15.79-7.07,24.53-7.98-4.13,11.8-11.62,24.05-20.97,32.23"/>
      <g>
        <path class="cls-1" d="M74.68.66c-5.18,9.02-8.21,19.39-10.1,29.56,0,.01,0,.03-.01.04-1.3-1.69-3.02-3.73-4.52-5.58-5.66-7.04-11.91-13.63-18.23-20.1C52.21.41,63.61-.95,74.68.66M0,55.85c9.68-1.18,19.4-2.26,29.03-2.59,2.49-.09,5.31-.21,7.54-.22,0-.01-.02-.03-.03-.04-7.82-9.31-14.9-19.8-19.45-31.12C8.46,31.42,2.57,43.26,0,55.85M19.07,122.02c4.55-8.3,9.35-16.51,14.6-24.26,1.39-2.06,2.96-4.42,4.28-6.24-.02,0-.03,0-.05,0-12.33.91-25.17.4-37.21-2.6,3.08,12.41,9.39,23.97,18.38,33.1M77.15,140.74c-2.93-7.38-5.74-14.82-7.98-22.31-.62-2.08-1.35-4.5-1.86-6.46,0,.01-.02.02-.03.04-6.71,9.52-13.91,18.69-22.94,26.16,10.91,3.19,21.5,4.69,32.81,2.58M122.43,108.48c-6.29-1.59-12.56-3.4-18.58-5.78-1.71-.68-3.71-1.39-5.29-2.07,0,.01,0,.03,0,.04,2.33,9.74,3.69,19.96,3.09,29.98,8.48-5.73,15.58-13.37,20.78-22.18M130.87,54.81c-5.05,4.15-10.25,8.18-15.73,11.7-1.53.98-3.28,2.17-4.73,3.05,0,0,.02.01.03.02,7.64,3.9,14.99,8.85,20.89,15.12,1.4-10.36,1.29-19.58-.46-29.89M99.63,9.83c-.46,7.76-1.02,15.54-2.07,23.14-.28,2.06-.61,4.46-.93,6.35,0,0,.02,0,.03-.01,7.88-3.69,15.78-7.07,24.53-7.98-5.49-8.65-12.86-16.07-21.56-21.49"/>
        <path class="cls-1" d="M540.44,22.36l-13.42,94.74h-17.07v-10.59c-8.46,8.08-17.24,12.18-26.15,12.18-6.25,0-10.87-1.81-14.13-5.52-5.02-5.73-6.5-15.85-4.51-30.95,3.93-28.29,14.49-33.97,30.25-33.97,6.23,0,13.37.56,19.71,1.5l3.88-27.4h21.42ZM503.62,63.86c-11.89,0-14.43,1.51-16.78,18.88-1.2,8.9-1.56,14.45.21,16.47.73.84,1.97,1.18,3.85,1.1,6.5-.13,11.66-3.56,18.32-9.45l3.77-27h-9.37ZM310.76,48.25c-12.12,0-20.41,2.52-26.09,7.92-5.62,5.34-8.94,13.49-10.77,26.44-1.83,12.87-.27,21.95,4.78,27.75,4.86,5.6,13.11,8.32,25.21,8.32,5.95,0,14.69-.54,22.56-3.13l.55-.18,2.22-15.83-1.42.24c-5.47.78-12.36,1.18-20.48,1.18-5.61,0-8.41-.69-9.97-2.46-1.93-2.19-2.3-6.46-1.26-14.73,1.87-15.33,6.63-17.81,17.31-17.81,4.33,0,20.48.28,20.48.28l2.1-15.01s-9.05-2.98-25.22-2.98M456.02,55.7c3.25,3.75,4.34,9.01,3.34,16.08-2.08,14.26-12.08,17.8-27.55,18.9l-18.38,1.38c.5,7.73,4.52,9.17,12.11,9.17,6.54,0,22.3-.77,24.87-1.43l1.04-.26.12,1.06c.64,5.59,2.5,11.78,2.52,11.84l.24.8-.78.33c-8.36,3.51-21.55,5.11-30.26,5.11-12.35,0-20.84-2.8-25.96-8.56-5.22-5.87-7.01-15.04-5.48-28.02,3.07-25.31,12.84-33.85,38.72-33.85,12.79,0,21.12,2.43,25.46,7.44M428.75,77.32c6.24-.5,9.14-1.72,9.86-7.64.18-2.06-.03-3.32-.69-4.04-.97-1.06-3.27-1.27-6.67-1.27-.63,0-1.3,0-2,.02-10.03,0-12.51,3.42-14.47,14.27l13.97-1.33ZM394.21,50.1h-4.13c-7.84,0-15.52,3.89-25.42,12.93v-12.93h-16.94l-9.38,67h21.44l5.2-38.53c2.7-3.44,10.21-7.5,15.8-7.5h4.58l.16-.73c.02-.09,1.95-8.7,7.87-18.83l.82-1.4ZM169.13,47.07c-1.79,13.83,3.04,22,16.16,27.34l17.33,6.9c5.5,2.01,6.72,3.04,6.01,8.49-1.07,7.02-3.8,8.9-15.92,8.9h-29.44l-2.62,18.4h32.92c25.65,0,34.26-6.05,36.86-25.88,1.61-12.52-.56-21.5-16.31-27.61l-16.38-6.24c-6.35-2.37-7.52-3.32-6.68-8.88.97-6.19,3.25-7.53,8.01-7.87h35.14l2.62-18.4h-31.36c-21.35,0-33.46,3.96-36.33,24.84M236.98,117.1h21.31l9.38-67h-21.31l-9.38,67ZM268.99,40.63l2.57-18.4h-21.3l-2.58,18.4h21.3ZM540.08,117.1h21.3l9.38-67h-21.31l-9.38,67ZM572.09,40.63l2.57-18.4h-21.3l-2.58,18.4h21.31Z"/>
      </g>
    </g>
  </g>
</svg>