<?xml version="1.0" encoding="UTF-8"?>
<svg id="Layer_2" data-name="Layer 2" xmlns="http://www.w3.org/2000/svg" viewBox="0 0 518.78 131.93">
  <defs>
    <style>
      .cls-1 {
        fill: #fff;
      }

      .cls-2 {
        opacity: .5;
      }
    </style>
  </defs>
  <g id="Layer_1-2" data-name="Layer 1">
    <g>
      <path class="cls-1" d="M476.45,67.51l-49,49,10.82,10.82c10.35,10.35,20.7,0,20.7,0l59.82-59.82h-42.33Z"/>
      <path class="cls-1" d="M518.78,64.42l-59.82-59.82s-10.35-10.35-20.7,0l-10.82,10.82,49,49h42.33Z"/>
      <path class="cls-1" d="M299.7,64.62h-21.95c1.11-8.01,3.58-10.6,11.47-10.6,7.4,0,10.23,1.85,10.48,10.6M287.86,39.71c-18.12,0-29.71,7.52-29.71,32.92s13.19,33.66,30.95,33.66c7.15,0,16.52-1.36,22.81-3.45l-2.83-14.43c-4.69,1.23-12.95,2.1-17.51,2.1-9.12,0-13.69-1.85-13.93-11.96h38.59c1.73-32.43-7.4-38.84-28.36-38.84"/>
      <path class="cls-1" d="M43.79,77.97c-3.62-13.81-13.29-43.65-18.77-58.75-.49-1.35-2.18-3.68-4.34-3.68H0v.91s4.02.51,6.93,9.33c5.89,17.9,19.91,61.98,24.67,78.77h23.27c8.26-20.1,23.34-68.92,29.25-89.02h-20.91c-4.25,14.52-14.36,48-19.42,62.43"/>
      <path class="cls-1" d="M153.47,15.55h-18.99v71.14c0,22.39,21.9,19.06,21.9,19.06-2.55-5.13-2.91-13.51-2.91-19.55V15.55Z"/>
      <path class="cls-1" d="M179.61,57.71c2.47-.74,5.55-1.11,8.26-1.11,8.63,0,10.48,3.08,10.48,14.55v33.41h18.86v-34.89c0-4.69-.49-8.63-1.23-11.96,3.08-.74,7.15-1.11,9.49-1.11,8.63,0,10.48,3.08,10.48,14.55v33.41h18.86v-34.89c0-22.69-7.77-29.96-25.28-29.96-7.15,0-15.17,1.73-21.82,4.07-3.82-2.84-9.12-4.07-15.78-4.07-11.34,0-23.18,2.71-31.32,5.67v59.18h18.99v-46.85Z"/>
      <path class="cls-1" d="M367.08,57.71v-16.27h-19.73v-10.63c0-9.49,1.28-15.27,1.28-15.27,0,0-20.27,2.63-20.27,16.52v9.37h-10.23v16.27h10.23v25.52c0,18.86,7.77,23.06,21.7,23.06,6.78,0,14.3-1.23,18.99-3.21l-3.08-14.55c-2.96.99-6.16,1.73-10.11,1.73-6.66,0-8.51-2.59-8.51-9v-23.55h19.73Z"/>
      <path class="cls-1" d="M110.69,90.51c-2.96,1.11-6.9,1.73-10.48,1.73-7.4,0-9-1.11-9-7.52s2.47-7.03,9.25-7.03c3.82,0,7.4.12,10.23.86v11.96ZM128.69,101.36v-37.11c0-18.74-8.88-24.53-27.74-24.53-9.37,0-11.85.35-19.13,2.2l-5.41,16.09c5.3-1.6,12.7-2.87,19.97-2.87,12.33,0,14.3,2.47,14.3,11.22-4.81-.99-9.62-1.6-14.3-1.6-15.04,0-24.66,2.83-24.66,20.59,0,16.52,6.17,20.96,27,20.96,9.25,0,21.45-1.85,29.96-4.93"/>
      <g class="cls-2">
        <path class="cls-1" d="M378.45,67.51l48.07,48.07,21.17-21.17-26.9-26.9h-42.33ZM426.54,16.33l-48.09,48.09h42.33l26.92-26.92-21.16-21.17Z"/>
      </g>
    </g>
  </g>
</svg>